<?xml version="1.0" encoding="UTF-8"?>
<svg xmlns="http://www.w3.org/2000/svg" xmlns:xlink="http://www.w3.org/1999/xlink" width="850px" height="850px" viewBox="0 0 850 850" version="1.1">
<g id="surface1">
<path style=" stroke:none;fill-rule:nonzero;fill:rgb(87.843137%,90.588235%,91.764706%);fill-opacity:1;" d="M 216.816406 619.070312 L 633.265625 619.070312 L 633.265625 659.082031 L 216.816406 659.082031 Z M 216.816406 619.070312 "/>
<path style=" stroke:none;fill-rule:nonzero;fill:rgb(0%,0%,0%);fill-opacity:1;" d="M 643.226562 315.84375 C 643.226562 312.191406 646.214844 309.203125 649.867188 309.203125 C 653.519531 309.203125 656.507812 312.191406 656.507812 315.84375 L 656.507812 350.292969 C 656.507812 353.945312 653.519531 356.933594 649.867188 356.933594 L 200.132812 356.933594 C 196.480469 356.933594 193.492188 353.945312 193.492188 350.292969 L 193.492188 315.929688 C 193.492188 312.277344 196.480469 309.289062 200.132812 309.289062 C 203.785156 309.289062 206.773438 312.277344 206.773438 315.929688 L 206.773438 343.652344 L 643.226562 343.652344 Z M 206.773438 609.027344 L 206.773438 617.742188 C 206.773438 621.398438 203.785156 624.382812 200.132812 624.382812 C 196.480469 624.382812 193.492188 621.398438 193.492188 617.742188 L 193.492188 602.386719 C 193.492188 598.734375 196.480469 595.746094 200.132812 595.746094 L 649.867188 595.746094 C 653.519531 595.746094 656.507812 598.734375 656.507812 602.386719 L 656.507812 621.230469 C 656.507812 624.882812 653.519531 627.871094 649.867188 627.871094 C 646.214844 627.871094 643.226562 624.882812 643.226562 621.230469 L 643.226562 609.027344 Z M 599.484375 645.632812 C 595.828125 645.632812 592.84375 642.648438 592.84375 638.992188 C 592.84375 635.34375 595.828125 632.351562 599.484375 632.351562 L 674.851562 632.351562 C 678.507812 632.351562 681.492188 635.34375 681.492188 638.992188 L 681.492188 676.679688 C 681.492188 680.332031 678.507812 683.320312 674.851562 683.320312 L 175.148438 683.320312 C 171.492188 683.320312 168.507812 680.332031 168.507812 676.679688 L 168.507812 638.992188 C 168.507812 635.34375 171.492188 632.351562 175.148438 632.351562 L 510 632.351562 C 513.652344 632.351562 516.640625 635.34375 516.640625 638.992188 C 516.640625 642.648438 513.652344 645.632812 510 645.632812 L 181.789062 645.632812 L 181.789062 670.039062 L 668.210938 670.039062 L 668.210938 645.632812 Z M 544.199219 645.632812 C 540.546875 645.632812 537.558594 642.648438 537.558594 638.992188 C 537.558594 635.34375 540.546875 632.351562 544.199219 632.351562 L 563.375 632.351562 C 567.027344 632.351562 570.015625 635.34375 570.015625 638.992188 C 570.015625 642.648438 567.027344 645.632812 563.375 645.632812 Z M 544.199219 645.632812 "/>
<path style=" stroke:none;fill-rule:nonzero;fill:rgb(87.843137%,90.588235%,91.764706%);fill-opacity:1;" d="M 289.945312 252.34375 L 424.417969 179.296875 L 670.371094 312.855469 L 605.625 312.855469 L 424.417969 214.742188 L 245.203125 312.855469 L 178.46875 312.855469 L 266.039062 265.292969 "/>
<path style=" stroke:none;fill-rule:nonzero;fill:rgb(0%,0%,0%);fill-opacity:1;" d="M 424.417969 186.851562 L 293.101562 258.15625 C 289.863281 259.898438 285.878906 258.734375 284.136719 255.5 C 282.390625 252.261719 283.554688 248.277344 286.792969 246.53125 L 421.265625 173.484375 C 423.257812 172.40625 425.664062 172.40625 427.574219 173.484375 L 673.527344 307.046875 C 679.585938 310.367188 677.261719 319.496094 670.371094 319.496094 L 178.46875 319.496094 C 171.578125 319.496094 169.253906 310.28125 175.3125 307.046875 L 262.886719 259.484375 C 266.125 257.738281 270.109375 258.902344 271.851562 262.136719 C 273.59375 265.375 272.429688 269.359375 269.195312 271.101562 L 204.613281 306.132812 L 644.222656 306.132812 Z M 424.417969 186.851562 "/>
<path style=" stroke:none;fill-rule:nonzero;fill:rgb(0%,0%,0%);fill-opacity:1;" d="M 424.5 220.550781 L 246.617188 317.171875 C 243.378906 318.917969 239.394531 317.753906 237.652344 314.515625 C 235.90625 311.28125 237.070312 307.296875 240.308594 305.550781 L 421.347656 207.1875 C 423.339844 206.109375 425.746094 206.109375 427.65625 207.1875 L 524.027344 259.566406 C 527.265625 261.308594 528.429688 265.375 526.683594 268.53125 C 524.941406 271.765625 520.875 272.929688 517.71875 271.1875 L 424.503906 220.550781 Z M 545.859375 286.460938 C 542.621094 284.71875 541.460938 280.648438 543.203125 277.496094 C 544.945312 274.257812 549.011719 273.09375 552.167969 274.839844 L 606.453125 304.304688 C 609.691406 306.050781 610.855469 310.117188 609.109375 313.273438 C 607.367188 316.507812 603.300781 317.671875 600.144531 315.929688 Z M 545.859375 286.460938 "/>
<path style=" stroke:none;fill-rule:nonzero;fill:rgb(100%,76.078431%,0%);fill-opacity:1;" d="M 398.769531 267.035156 C 398.769531 281.613281 410.585938 293.433594 425.167969 293.433594 C 439.746094 293.433594 451.5625 281.613281 451.5625 267.035156 C 451.5625 252.457031 439.746094 240.640625 425.164062 240.640625 C 410.585938 240.640625 398.769531 252.457031 398.769531 267.035156 Z M 398.769531 267.035156 "/>
<path style=" stroke:none;fill-rule:nonzero;fill:rgb(0%,0%,0%);fill-opacity:1;" d="M 306.796875 595.25 L 306.796875 394.953125 C 306.796875 391.296875 309.785156 388.3125 313.4375 388.3125 C 317.089844 388.3125 320.078125 391.296875 320.078125 394.953125 L 320.078125 601.890625 C 320.078125 605.542969 317.089844 608.53125 313.4375 608.53125 L 238.480469 608.53125 C 234.828125 608.53125 231.839844 605.542969 231.839844 601.890625 L 231.839844 381.585938 C 231.839844 377.933594 234.828125 374.945312 238.480469 374.945312 C 242.132812 374.945312 245.121094 377.933594 245.121094 381.585938 L 245.121094 595.25 Z M 306.796875 595.25 "/>
<path style=" stroke:none;fill-rule:nonzero;fill:rgb(0%,0%,0%);fill-opacity:1;" d="M 323.398438 355.855469 C 323.398438 352.203125 326.386719 349.214844 330.039062 349.214844 C 333.691406 349.214844 336.679688 352.203125 336.679688 355.855469 C 336.679688 369.632812 325.472656 380.839844 311.695312 380.839844 L 238.480469 380.839844 C 224.703125 380.839844 213.496094 369.632812 213.496094 355.855469 C 213.496094 352.203125 216.484375 349.214844 220.136719 349.214844 C 223.789062 349.214844 226.777344 352.203125 226.777344 355.855469 C 226.777344 362.328125 232.007812 367.558594 238.480469 367.558594 L 311.777344 367.558594 C 318.167969 367.558594 323.398438 362.328125 323.398438 355.855469 Z M 473.3125 355.855469 C 473.3125 352.203125 476.300781 349.214844 479.953125 349.214844 C 483.601562 349.214844 486.59375 352.203125 486.59375 355.855469 C 486.59375 369.632812 475.386719 380.839844 461.605469 380.839844 L 388.3125 380.839844 C 374.53125 380.839844 363.324219 369.632812 363.324219 355.855469 C 363.324219 352.203125 366.3125 349.214844 369.964844 349.214844 C 373.617188 349.214844 376.605469 352.203125 376.605469 355.855469 C 376.605469 362.328125 381.835938 367.558594 388.3125 367.558594 L 461.605469 367.558594 C 468.082031 367.558594 473.3125 362.328125 473.3125 355.855469 Z M 623.222656 355.855469 C 623.222656 352.203125 626.210938 349.214844 629.863281 349.214844 C 633.515625 349.214844 636.503906 352.203125 636.503906 355.855469 C 636.503906 369.632812 625.296875 380.839844 611.519531 380.839844 L 538.222656 380.839844 C 524.445312 380.839844 513.238281 369.632812 513.238281 355.855469 C 513.238281 352.203125 516.226562 349.214844 519.878906 349.214844 C 523.53125 349.214844 526.519531 352.203125 526.519531 355.855469 C 526.519531 362.328125 531.746094 367.558594 538.222656 367.558594 L 611.519531 367.558594 C 617.992188 367.558594 623.222656 362.328125 623.222656 355.855469 Z M 623.222656 355.855469 "/>
<path style=" stroke:none;fill-rule:nonzero;fill:rgb(100%,40.784314%,29.803922%);fill-opacity:1;" d="M 296.753906 401.757812 L 296.753906 586.449219 L 255.082031 586.449219 L 255.082031 389.886719 L 296.753906 389.886719 M 445.003906 401.757812 L 445.003906 586.449219 L 403.335938 586.449219 L 403.335938 389.886719 L 445.003906 389.886719 M 594.917969 401.757812 L 594.917969 586.449219 L 553.246094 586.449219 L 553.246094 389.886719 L 594.917969 389.886719 "/>
<path style=" stroke:none;fill-rule:nonzero;fill:rgb(0%,0%,0%);fill-opacity:1;" d="M 604.960938 434.214844 C 604.960938 430.5625 607.949219 427.574219 611.601562 427.574219 C 615.253906 427.574219 618.242188 430.5625 618.242188 434.214844 L 618.242188 602.304688 C 618.242188 605.957031 615.253906 608.945312 611.601562 608.945312 L 536.644531 608.945312 C 532.992188 608.945312 530.003906 605.957031 530.003906 602.304688 L 530.003906 379.179688 C 530.003906 375.527344 532.992188 372.539062 536.644531 372.539062 C 540.296875 372.539062 543.285156 375.527344 543.285156 379.179688 L 543.285156 595.664062 L 604.960938 595.664062 Z M 604.960938 379.179688 C 604.960938 375.527344 607.949219 372.539062 611.601562 372.539062 C 615.253906 372.539062 618.242188 375.527344 618.242188 379.179688 L 618.242188 398.769531 C 618.242188 402.421875 615.253906 405.410156 611.601562 405.410156 C 607.949219 405.410156 604.960938 402.421875 604.960938 398.769531 Z M 455.050781 518.632812 C 455.050781 514.980469 458.039062 511.992188 461.691406 511.992188 C 465.34375 511.992188 468.332031 514.980469 468.332031 518.632812 L 468.332031 602.304688 C 468.332031 605.957031 465.34375 608.945312 461.691406 608.945312 L 386.734375 608.945312 C 383.082031 608.945312 380.09375 605.957031 380.09375 602.304688 L 380.09375 399.351562 C 380.09375 395.699219 383.082031 392.710938 386.734375 392.710938 C 390.386719 392.710938 393.375 395.699219 393.375 399.351562 L 393.375 595.664062 L 455.050781 595.664062 Z M 455.050781 377.769531 C 455.050781 374.117188 458.039062 371.128906 461.691406 371.128906 C 465.34375 371.128906 468.332031 374.117188 468.332031 377.769531 L 468.332031 484.847656 C 468.332031 488.5 465.34375 491.488281 461.691406 491.488281 C 458.039062 491.488281 455.050781 488.5 455.050781 484.847656 Z M 455.050781 377.769531 "/>
</g>
</svg>
